# 3ds Max Wavefront OBJ Exporter v0.97b - (c)2007 guruware
# File Created: 23.07.2021 21:14:35

mtllib Rack.mtl

#
# object Rack
#

v  19.7883 132.8085 -46.4476
v  19.7883 9.7484 -46.4476
v  19.7883 9.7484 46.1811
v  19.7883 132.8085 46.1811
v  -20.6124 134.9349 -48.0240
v  -20.6124 132.8085 -46.3143
v  -20.6124 132.8085 46.3143
v  -20.6124 134.9349 48.0240
v  -20.6124 1.8853 -48.0240
v  -20.6124 9.7484 -46.3143
v  -20.6124 1.8853 48.0240
v  -20.6124 9.7484 46.3143
v  18.5112 0.0000 -47.1033
v  18.5112 0.0000 47.1033
v  -18.5114 0.0000 47.1033
v  -18.5114 0.0000 -47.1033
v  18.5112 134.7191 49.5399
v  -18.5114 134.7191 49.5399
v  -18.5114 2.1011 49.5399
v  18.5112 2.1011 49.5399
v  18.5112 134.7191 -49.5399
v  18.5112 2.1011 -49.5399
v  -18.5114 2.1011 -49.5399
v  -18.5114 134.7191 -49.5399
v  20.6124 134.7191 -47.1033
v  20.6124 134.7191 47.1033
v  20.6124 2.1011 47.1033
v  20.6124 2.1011 -47.1033
v  -18.5114 136.8203 -47.1033
v  -18.5114 136.8203 47.1033
v  18.5112 136.8203 47.1033
v  18.5112 136.8203 -47.1033
v  -19.9753 0.4841 47.5576
v  -19.9753 0.4841 -47.5576
v  -18.5114 0.6154 48.8263
v  18.5112 0.6154 48.8263
v  -19.8387 1.9993 49.2967
v  -19.8387 134.8209 49.2967
v  -19.8387 1.9993 -49.2967
v  -19.8387 134.8209 -49.2967
v  -18.5114 0.6154 -48.8263
v  18.5112 0.6154 -48.8263
v  19.9968 2.1011 48.8263
v  19.9968 134.7191 48.8263
v  19.9969 0.6154 47.1033
v  19.9969 0.6154 -47.1033
v  19.9968 2.1011 -48.8263
v  19.9968 134.7191 -48.8263
v  18.5112 136.2048 48.8263
v  -18.5114 136.2048 48.8263
v  19.9969 136.2048 47.1033
v  19.9969 136.2048 -47.1033
v  18.5112 136.2048 -48.8263
v  -18.5114 136.2048 -48.8263
v  -19.9753 136.3361 47.5576
v  -19.9753 136.3361 -47.5576
v  -19.6166 0.8353 48.8005
v  -19.6166 0.8353 -48.8005
v  19.7068 0.9055 48.4899
v  19.7068 0.9055 -48.4898
v  19.7068 135.9147 48.4899
v  19.7068 135.9147 -48.4898
v  -19.6166 135.9849 48.8005
v  -19.6166 135.9849 -48.8005
v  19.7883 73.5765 -46.3687
v  -20.1703 73.5765 -46.3687
v  -20.1703 73.5765 46.2538
v  19.7883 73.5765 46.2538
v  -20.6125 73.1343 -46.3687
v  -20.6125 71.1655 -46.3687
v  -20.6125 71.1655 46.2538
v  -20.6125 73.1343 46.2538
v  -20.1703 70.7233 -46.3687
v  19.7883 70.7233 -46.3687
v  19.7883 70.7233 46.2538
v  -20.1703 70.7233 46.2538
v  -20.4460 73.4102 46.2538
v  -20.4460 73.4102 -46.3687
v  -20.4460 70.8896 46.2538
v  -20.4460 70.8896 -46.3687
# 80 vertices

vn -1.0000 0.0000 -0.0000
vn -0.9961 0.0392 -0.0791
vn -0.9961 0.0392 0.0791
vn -0.9961 -0.0392 -0.0791
vn -1.0000 0.0000 0.0000
vn -0.9961 -0.0392 0.0791
vn -0.0000 -1.0000 -0.0000
vn 0.0033 0.0000 1.0000
vn 0.0000 1.0000 0.0000
vn -0.0033 0.0000 -1.0000
vn 0.0042 -1.0000 -0.0027
vn 0.0042 -1.0000 0.0027
vn -0.0035 -1.0000 0.0027
vn -0.0035 -1.0000 -0.0027
vn 0.0049 0.0022 1.0000
vn -0.0010 0.0022 1.0000
vn -0.0010 -0.0022 1.0000
vn 0.0049 -0.0022 1.0000
vn 0.0049 0.0022 -1.0000
vn 0.0049 -0.0022 -1.0000
vn -0.0010 -0.0022 -1.0000
vn -0.0010 0.0022 -1.0000
vn 1.0000 0.0019 -0.0027
vn 1.0000 0.0019 0.0027
vn 1.0000 -0.0019 0.0027
vn 1.0000 -0.0019 -0.0027
vn -0.0035 1.0000 -0.0027
vn -0.0035 1.0000 0.0027
vn 0.0042 1.0000 0.0027
vn 0.0042 1.0000 -0.0027
vn -0.6945 -0.7195 0.0027
vn -0.6945 -0.7195 -0.0027
vn -0.0010 -0.7576 0.6528
vn 0.0034 -0.7573 0.6530
vn -0.5237 -0.0020 0.8519
vn -0.5237 0.0020 0.8519
vn -0.5237 -0.0020 -0.8519
vn -0.5237 0.0020 -0.8519
vn -0.0010 -0.7576 -0.6528
vn 0.0034 -0.7573 -0.6530
vn 0.7573 -0.0016 0.6531
vn 0.7573 0.0016 0.6531
vn 0.7070 -0.7072 0.0021
vn 0.7070 -0.7072 -0.0021
vn 0.7573 -0.0016 -0.6531
vn 0.7573 0.0016 -0.6531
vn 0.0034 0.7573 0.6530
vn -0.0010 0.7576 0.6528
vn 0.7070 0.7072 0.0021
vn 0.7070 0.7072 -0.0021
vn 0.0034 0.7573 -0.6530
vn -0.0010 0.7576 -0.6528
vn -0.6945 0.7195 0.0027
vn -0.6945 0.7195 -0.0027
vn -0.3639 -0.6815 0.6349
vn -0.3639 -0.6815 -0.6349
vn 0.6090 -0.6007 0.5180
vn 0.6090 -0.6007 -0.5180
vn 0.6090 0.6007 0.5180
vn 0.6090 0.6007 -0.5180
vn -0.3639 0.6815 0.6349
vn -0.3639 0.6815 -0.6349
vn 0.0015 1.0000 0.0000
vn -0.0015 1.0000 -0.0000
vn -0.9996 0.0270 -0.0000
vn -0.9996 -0.0270 -0.0000
vn -0.0015 -1.0000 -0.0000
vn 0.0015 -1.0000 0.0000
vn -0.5000 0.8660 -0.0000
vn -0.5000 -0.8660 -0.0000
# 70 vertex normals

vt 0.2930 0.8553 0.0000
vt 0.2930 0.4532 0.0000
vt 0.5540 0.4532 0.0000
vt 0.5540 0.8553 0.0000
vt 0.0056 0.4530 0.0000
vt 0.0106 0.4458 0.0000
vt 0.2783 0.4458 0.0000
vt 0.2832 0.4530 0.0000
vt 0.0056 0.0071 0.0000
vt 0.0106 0.0334 0.0000
vt 0.2832 0.0071 0.0000
vt 0.2783 0.0334 0.0000
vt 0.1387 0.4662 0.0000
vt 0.2707 0.4658 0.0000
vt 0.2707 0.7267 0.0000
vt 0.1387 0.7271 0.0000
vt 0.8497 0.0020 0.0000
vt 0.9817 0.0020 0.0000
vt 0.9817 0.4041 0.0000
vt 0.8497 0.4041 0.0000
vt 0.1426 0.7330 0.0000
vt 0.2746 0.7334 0.0000
vt 0.2746 0.9944 0.0000
vt 0.1426 0.9940 0.0000
vt 0.8497 0.4102 0.0000
vt 0.9817 0.4102 0.0000
vt 0.9817 0.8123 0.0000
vt 0.8497 0.8123 0.0000
vt 0.7044 0.4598 0.0000
vt 0.7044 0.7263 0.0000
vt 0.5830 0.7263 0.0000
vt 0.5830 0.4598 0.0000
vt 0.5554 0.4416 0.0000
vt 0.4341 0.4416 0.0000
vt 0.4341 0.0072 0.0000
vt 0.5554 0.0072 0.0000
vt 0.4186 0.0072 0.0000
vt 0.4186 0.4416 0.0000
vt 0.2973 0.4416 0.0000
vt 0.2973 0.0072 0.0000
vt 0.8374 0.4415 0.0000
vt 0.5713 0.4415 0.0000
vt 0.5713 0.0072 0.0000
vt 0.8374 0.0072 0.0000
vt 0.0068 0.7369 0.0000
vt 0.0068 0.4704 0.0000
vt 0.1282 0.4704 0.0000
vt 0.1282 0.7369 0.0000
vt 0.5782 0.7275 0.0000
vt 0.5782 0.4585 0.0000
vt 0.2818 0.0024 0.0000
vt 0.0070 0.0024 0.0000
vt 0.4341 0.0023 0.0000
vt 0.5554 0.0023 0.0000
vt 0.5830 0.7311 0.0000
vt 0.7044 0.7311 0.0000
vt 0.2869 0.0074 0.0000
vt 0.2869 0.4526 0.0000
vt 0.4297 0.0069 0.0000
vt 0.4297 0.4419 0.0000
vt 0.2930 0.4419 0.0000
vt 0.2930 0.0069 0.0000
vt 0.0020 0.0074 0.0000
vt 0.0020 0.4526 0.0000
vt 0.5830 0.4549 0.0000
vt 0.7044 0.4549 0.0000
vt 0.2973 0.4465 0.0000
vt 0.4186 0.4465 0.0000
vt 0.5602 0.0072 0.0000
vt 0.5602 0.4416 0.0000
vt 0.5665 0.0072 0.0000
vt 0.5665 0.4415 0.0000
vt 0.5713 0.0023 0.0000
vt 0.8374 0.0023 0.0000
vt 0.7093 0.7263 0.0000
vt 0.7093 0.4598 0.0000
vt 0.8422 0.0072 0.0000
vt 0.8422 0.4415 0.0000
vt 0.4235 0.4416 0.0000
vt 0.4235 0.0072 0.0000
vt 0.5554 0.4465 0.0000
vt 0.4341 0.4465 0.0000
vt 0.1282 0.4656 0.0000
vt 0.0068 0.4656 0.0000
vt 0.1331 0.4704 0.0000
vt 0.1331 0.7369 0.0000
vt 0.5713 0.4464 0.0000
vt 0.8374 0.4464 0.0000
vt 0.1282 0.7418 0.0000
vt 0.0068 0.7418 0.0000
vt 0.4186 0.0023 0.0000
vt 0.2973 0.0023 0.0000
vt 0.2818 0.4576 0.0000
vt 0.0070 0.4576 0.0000
vt 0.0020 0.4692 0.0000
vt 0.0020 0.7382 0.0000
vt 0.2854 0.0035 0.0000
vt 0.5794 0.7311 0.0000
vt 0.4305 0.0030 0.0000
vt 0.0034 0.0035 0.0000
vt 0.2937 0.4458 0.0000
vt 0.5794 0.4550 0.0000
vt 0.5674 0.0033 0.0000
vt 0.5593 0.0033 0.0000
vt 0.7083 0.7302 0.0000
vt 0.4225 0.4455 0.0000
vt 0.8413 0.0033 0.0000
vt 0.7083 0.4559 0.0000
vt 0.1321 0.4665 0.0000
vt 0.5593 0.4455 0.0000
vt 0.5674 0.4454 0.0000
vt 0.4225 0.0033 0.0000
vt 0.1321 0.7408 0.0000
vt 0.8413 0.4454 0.0000
vt 0.2854 0.4565 0.0000
vt 0.4305 0.4458 0.0000
vt 0.0031 0.4656 0.0000
vt 0.0034 0.4565 0.0000
vt 0.0031 0.7417 0.0000
vt 0.2937 0.0030 0.0000
vt 0.8435 0.9941 0.0000
vt 0.7130 0.9941 0.0000
vt 0.7130 0.7332 0.0000
vt 0.8435 0.7332 0.0000
vt 0.5690 0.7318 0.0000
vt 0.5621 0.7318 0.0000
vt 0.5621 0.4530 0.0000
vt 0.5690 0.4530 0.0000
vt 0.5723 0.7371 0.0000
vt 0.7029 0.7371 0.0000
vt 0.7029 0.9980 0.0000
vt 0.5723 0.9980 0.0000
vt 0.5700 0.4530 0.0000
vt 0.5700 0.7318 0.0000
vt 0.5706 0.4530 0.0000
vt 0.5706 0.7318 0.0000
vt 0.5612 0.4530 0.0000
vt 0.5612 0.7318 0.0000
vt 0.5606 0.7318 0.0000
vt 0.5606 0.4530 0.0000
# 140 texture coords

o Rack
g Rack
usemtl 03___Default
s off
f 1/1/1 2/2/1 3/3/1 4/4/1 
usemtl RackSG
f 5/5/2 6/6/1 7/7/1 8/8/3 
f 5/5/2 9/9/4 10/10/5 6/6/5 
f 11/11/6 12/12/1 10/10/1 9/9/4 
f 8/8/3 7/7/1 12/12/1 11/11/6 
usemtl 02___Default
f 6/13/7 1/14/7 4/15/7 7/16/7 
f 10/17/8 2/18/8 1/19/8 6/20/8 
f 12/21/9 3/22/9 2/23/9 10/24/9 
f 7/25/10 4/26/10 3/27/10 12/28/10 
usemtl RackSG
f 13/29/11 14/30/12 15/31/13 16/32/14 
f 17/33/15 18/34/16 19/35/17 20/36/18 
f 21/37/19 22/38/20 23/39/21 24/40/22 
f 25/41/23 26/42/24 27/43/25 28/44/26 
f 29/45/27 30/46/28 31/47/29 32/48/30 
f 15/31/13 33/49/31 34/50/32 16/32/14 
f 33/51/31 11/11/6 9/9/4 34/52/32 
f 19/35/17 35/53/33 36/54/34 20/36/18 
f 35/55/33 15/31/13 14/30/12 36/56/34 
f 11/11/6 37/57/35 38/58/36 8/8/3 
f 37/59/35 19/35/17 18/34/16 38/60/36 
f 23/39/21 39/61/37 40/62/38 24/40/22 
f 39/63/37 9/9/4 5/5/2 40/64/38 
f 16/32/14 41/65/39 42/66/40 13/29/11 
f 41/67/39 23/39/21 22/38/20 42/68/40 
f 20/36/18 43/69/41 44/70/42 17/33/15 
f 43/71/41 27/43/25 26/42/24 44/72/42 
f 27/43/25 45/73/43 46/74/44 28/44/26 
f 45/75/43 14/30/12 13/29/11 46/76/44 
f 28/44/26 47/77/45 48/78/46 25/41/23 
f 47/79/45 22/38/20 21/37/19 48/80/46 
f 17/33/15 49/81/47 50/82/48 18/34/16 
f 49/83/47 31/47/29 30/46/28 50/84/48 
f 31/47/29 51/85/49 52/86/50 32/48/30 
f 51/87/49 26/42/24 25/41/23 52/88/50 
f 32/48/30 53/89/51 54/90/52 29/45/27 
f 53/91/51 21/37/19 24/40/22 54/92/52 
f 8/8/3 55/93/53 56/94/54 5/5/2 
f 55/95/53 30/46/28 29/45/27 56/96/54 
f 11/11/6 33/51/31 57/97/55 37/57/35 
f 35/55/33 57/98/55 33/49/31 15/31/13 
f 19/35/17 37/59/35 57/99/55 35/53/33 
f 9/9/4 39/63/37 58/100/56 34/52/32 
f 23/39/21 41/67/39 58/101/56 39/61/37 
f 34/50/32 58/102/56 41/65/39 16/32/14 
f 27/43/25 43/71/41 59/103/57 45/73/43 
f 20/36/18 36/54/34 59/104/57 43/69/41 
f 14/30/12 45/75/43 59/105/57 36/56/34 
f 22/38/20 47/79/45 60/106/58 42/68/40 
f 28/44/26 46/74/44 60/107/58 47/77/45 
f 13/29/11 42/66/40 60/108/58 46/76/44 
f 31/47/29 49/83/47 61/109/59 51/85/49 
f 17/33/15 44/70/42 61/110/59 49/81/47 
f 26/42/24 51/87/49 61/111/59 44/72/42 
f 21/37/19 53/91/51 62/112/60 48/80/46 
f 32/48/30 52/86/50 62/113/60 53/89/51 
f 25/41/23 48/78/46 62/114/60 52/88/50 
f 8/8/3 38/58/36 63/115/61 55/93/53 
f 18/34/16 50/82/48 63/116/61 38/60/36 
f 55/95/53 63/117/61 50/84/48 30/46/28 
f 5/5/2 56/94/54 64/118/62 40/64/38 
f 54/90/52 64/119/62 56/96/54 29/45/27 
f 24/40/22 40/62/38 64/120/62 54/92/52 
usemtl 02___Default
f 65/121/63 66/122/64 67/123/64 68/124/63 
f 69/125/65 70/126/66 71/127/66 72/128/65 
f 73/129/67 74/130/68 75/131/68 76/132/67 
usemtl RackSG
f 72/128/65 77/133/69 78/134/69 69/125/65 
f 67/135/64 66/136/64 78/134/69 77/133/69 
f 79/137/70 80/138/70 73/139/67 76/140/67 
f 79/137/70 71/127/66 70/126/66 80/138/70 
# 69 polygons

