# 3ds Max Wavefront OBJ Exporter v0.97b - (c)2007 guruware
# File Created: 21.07.2021 17:47:03

mtllib puertaMM6.mtl

#
# object DOOR
#

v  2.5519 42.8556 3.0175
v  2.5519 -39.1444 3.0175
v  2.5519 -33.1445 -2.9825
v  2.5519 36.8556 -2.9825
v  2.5519 -33.1444 -24.9825
v  2.5519 -39.1443 -30.9825
v  2.5519 42.8557 -30.9825
v  2.5519 36.8557 -24.9825
v  0.5519 42.8556 3.0175
v  0.5519 36.8556 -2.9825
v  0.5519 -33.1445 -2.9825
v  0.5519 -39.1444 3.0175
v  0.5519 -33.1444 -24.9825
v  0.5519 -39.1443 -30.9825
v  0.5519 36.8557 -24.9825
v  0.5519 42.8557 -30.9825
v  0.3528 36.8481 -24.9322
v  0.3528 36.8480 -2.9322
v  0.3528 -33.1521 -2.9322
v  0.3528 -33.1520 -24.9322
v  -0.1472 -33.1521 -2.9322
v  -0.1472 36.8480 -2.9322
v  -0.1472 36.8481 -24.9322
v  -0.1472 -33.1520 -24.9322
v  4.4985 -40.1444 4.0175
v  4.4985 -39.1444 3.0175
v  4.4985 42.8556 3.0175
v  4.4985 43.8556 4.0175
v  4.4985 -39.1443 -30.9825
v  4.4985 -40.1443 -31.9825
v  4.4985 43.8557 -31.9825
v  4.4985 42.8557 -30.9825
v  -1.5015 42.8556 3.0175
v  -1.5015 -39.1444 3.0175
v  -1.5015 -40.1444 4.0175
v  -1.5015 43.8556 4.0175
v  -1.5015 -39.1443 -30.9825
v  -1.5015 -40.1443 -31.9825
v  -1.5015 42.8557 -30.9825
v  -1.5015 43.8557 -31.9825
v  4.4985 -18.9367 -26.6426
v  4.4985 -18.9367 -27.6426
v  4.4985 17.0633 -27.6426
v  4.4985 17.0633 -26.6426
v  2.7334 17.0633 -27.6426
v  2.7333 17.0633 -26.6426
v  2.7333 -18.9367 -26.6426
v  2.7334 -18.9367 -27.6426
v  4.1450 -18.5830 -26.6426
v  4.1450 16.7097 -26.6426
v  4.1450 16.7097 -27.6426
v  4.1450 -18.5830 -27.6426
v  2.7333 16.7097 -26.6426
v  2.7334 -18.5830 -27.6426
v  2.7334 16.7097 -27.6426
v  2.7333 -18.5830 -26.6426
v  2.7334 -19.6438 -28.3497
v  0.2637 -19.6438 -28.3497
v  0.2637 -17.8761 -28.3497
v  2.7334 -17.8761 -28.3497
v  2.7334 17.7704 -28.3497
v  2.7333 17.7704 -25.9355
v  2.7334 16.0027 -28.3497
v  2.7333 16.0027 -25.9355
v  2.7333 -19.6438 -25.9355
v  2.7333 -17.8761 -25.9355
v  0.2637 16.0027 -28.3497
v  0.2637 16.0027 -25.9355
v  0.2637 -17.8761 -25.9355
v  0.2637 -19.6438 -25.9355
v  -1.5015 17.0633 -26.6426
v  -1.5015 17.0633 -27.6426
v  -1.5015 -18.9367 -27.6426
v  -1.5015 -18.9367 -26.6426
v  0.2637 17.0633 -26.6426
v  0.2637 17.0633 -27.6426
v  0.2637 -18.9367 -27.6426
v  0.2637 -18.9367 -26.6426
v  -1.1480 -18.5830 -27.6426
v  -1.1480 16.7097 -27.6426
v  -1.1480 16.7097 -26.6426
v  -1.1480 -18.5830 -26.6426
v  0.2637 16.7097 -26.6426
v  0.2637 -18.5830 -27.6426
v  0.2637 17.7704 -25.9355
v  0.2637 17.7704 -28.3497
v  0.2637 16.7097 -27.6426
v  0.2637 -18.5830 -26.6426
# 88 vertices

vn 0.5774 0.5773 0.5774
vn 0.5774 -0.5774 0.5773
vn 0.9045 0.3015 -0.3015
vn 0.9045 -0.3015 -0.3015
vn 0.9045 0.3015 0.3015
vn 0.5774 -0.5773 -0.5774
vn 0.5774 0.5774 -0.5773
vn 0.9045 -0.3015 0.3015
vn -0.5774 0.5773 0.5774
vn -0.9045 -0.3015 -0.3015
vn -0.9045 0.3015 -0.3015
vn -0.5774 -0.5774 0.5773
vn -0.9045 0.3015 0.3015
vn -0.5774 -0.5773 -0.5774
vn -0.9045 -0.3015 0.3015
vn -0.5774 0.5774 -0.5773
vn 0.5773 0.5773 0.5774
vn 0.5773 -0.5773 -0.5774
vn -0.5773 0.5773 0.5774
vn -0.5773 -0.5773 -0.5774
vn 0.5773 -0.5774 0.5773
vn 0.5773 -0.5774 -0.5773
vn 0.5774 0.5773 -0.5773
vn 0.9045 0.3015 0.3016
vn 0.9045 -0.3015 0.3016
vn 0.9045 -0.3016 -0.3015
vn -0.3015 0.3015 0.9045
vn -0.3015 -0.3015 0.9045
vn -0.3015 -0.3015 -0.9045
vn -0.3015 0.3015 -0.9045
vn 0.9045 0.3016 -0.3015
vn 0.5774 -0.5774 -0.5773
vn -0.5774 -0.5774 -0.5774
vn -0.5774 0.5774 -0.5774
vn 0.5774 -0.5773 0.5774
vn -0.5774 -0.5774 0.5774
vn -0.5774 0.5774 0.5774
vn -0.5774 0.5774 0.5773
vn -0.5773 0.5773 -0.5774
vn 0.3015 0.3015 -0.9045
vn 0.3015 -0.3015 -0.9045
vn 0.3015 -0.3015 0.9045
vn 0.3015 0.3015 0.9045
# 43 vertex normals

vt 0.0000 1.0000 0.0000
vt 0.0000 0.0000 0.0000
vt 1.0000 0.0000 0.0000
vt 1.0000 1.0000 0.0000
# 4 texture coords

o DOOR
g DOOR
usemtl Frame
s off
f 1/1/1 2/2/2 3/2/3 4/1/4 
f 5/3/5 3/2/3 2/2/2 6/3/6 
f 5/3/5 6/3/6 7/4/7 8/4/8 
f 4/1/4 8/4/8 7/4/7 1/1/1 
f 9/1/9 10/1/10 11/2/11 12/2/12 
f 11/2/11 13/3/13 14/3/14 12/2/12 
f 15/4/15 16/4/16 14/3/14 13/3/13 
f 10/1/10 9/1/9 16/4/16 15/4/15 
f 1/1/1 9/1/9 12/2/12 2/2/2 
f 10/1/10 4/1/4 3/2/3 11/2/11 
f 2/2/2 12/2/12 14/3/14 6/3/6 
f 3/2/3 5/3/5 13/3/13 11/2/11 
f 7/4/7 6/3/6 14/3/14 16/4/16 
f 5/3/5 8/4/8 15/4/15 13/3/13 
f 1/1/1 7/4/7 16/4/16 9/1/9 
f 15/4/15 8/4/8 4/1/4 10/1/10 
usemtl Glass_1
f 17/4/7 18/1/17 19/2/2 20/3/18 
f 21/2/12 22/1/19 23/4/16 24/3/20 
f 20/3/18 19/2/2 21/2/12 24/3/20 
f 24/3/20 23/4/16 17/4/7 20/3/18 
f 18/1/17 17/4/7 23/4/16 22/1/19 
f 22/1/19 21/2/12 19/2/2 18/1/17 
usemtl Frame
f 25/2/2 26/2/3 27/1/4 28/1/1 
f 29/3/5 26/2/3 25/2/2 30/3/6 
f 30/3/6 31/4/7 32/4/8 29/3/5 
f 27/1/4 32/4/8 31/4/7 28/1/1 
f 33/1/10 34/2/11 35/2/12 36/1/9 
f 35/2/12 34/2/11 37/3/13 38/3/14 
f 37/3/13 39/4/15 40/4/16 38/3/14 
f 39/4/15 33/1/10 36/1/9 40/4/16 
f 36/1/9 35/2/12 25/2/2 28/1/1 
f 26/2/3 34/2/11 33/1/10 27/1/4 
f 30/3/6 25/2/2 35/2/12 38/3/14 
f 29/3/5 37/3/13 34/2/11 26/2/3 
f 30/3/6 38/3/14 40/4/16 31/4/7 
f 29/3/5 32/4/8 39/4/15 37/3/13 
f 40/4/16 36/1/9 28/1/1 31/4/7 
f 32/4/8 27/1/4 33/1/10 39/4/15 
s 1
f 41/2/21 42/3/22 43/4/23 44/1/17 
s off
f 43/4/23 45/4/3 46/1/24 44/1/17 
f 47/2/25 48/3/26 42/3/22 41/2/21 
s 1
f 49/2/27 50/1/28 51/4/29 52/3/30 
s 2
f 52/3/30 51/4/29 43/4/23 42/3/22 
f 49/2/27 41/2/21 44/1/17 50/1/28 
f 46/1/24 53/1/25 50/1/28 44/1/17 
f 48/3/26 54/3/31 52/3/30 42/3/22 
s off
f 50/1/28 53/1/25 55/4/26 51/4/29 
f 49/2/27 52/3/30 54/3/31 56/2/24 
s 2
f 45/4/3 43/4/23 51/4/29 55/4/26 
f 47/2/25 41/2/21 49/2/27 56/2/24 
f 57/3/32 58/3/33 59/3/34 60/3/7 
s off
f 46/1/24 45/4/3 61/4/7 62/1/1 
f 55/4/26 63/4/32 61/4/7 45/4/3 
f 53/1/25 64/1/35 63/4/32 55/4/26 
f 62/1/1 64/1/35 53/1/25 46/1/24 
f 65/2/35 57/3/32 48/3/26 47/2/25 
f 56/2/24 66/2/1 65/2/35 47/2/25 
f 60/3/7 66/2/1 56/2/24 54/3/31 
f 54/3/31 48/3/26 57/3/32 60/3/7 
f 67/4/33 63/4/32 64/1/35 68/1/36 
f 60/3/7 59/3/34 69/2/37 66/2/1 
s 2
f 65/2/35 66/2/1 69/2/37 70/2/36 
s 1
f 71/1/38 72/4/39 73/3/14 74/2/36 
s off
f 75/1/13 76/4/11 72/4/39 71/1/38 
f 73/3/14 77/3/10 78/2/15 74/2/36 
s 1
f 79/3/40 80/4/41 81/1/42 82/2/43 
s 2
f 72/4/39 80/4/41 79/3/40 73/3/14 
f 82/2/43 81/1/42 71/1/38 74/2/36 
f 75/1/13 71/1/38 81/1/42 83/1/15 
f 79/3/40 84/3/11 77/3/10 73/3/14 
s off
f 85/1/37 62/1/1 61/4/7 86/4/34 
f 70/2/36 58/3/33 57/3/32 65/2/35 
f 81/1/42 80/4/41 87/4/10 83/1/15 
f 84/3/11 79/3/40 82/2/43 88/2/13 
s 2
f 80/4/41 72/4/39 76/4/11 87/4/10 
f 85/1/37 68/1/36 64/1/35 62/1/1 
f 78/2/15 88/2/13 82/2/43 74/2/36 
s off
f 75/1/13 85/1/37 86/4/34 76/4/11 
f 86/4/34 67/4/33 87/4/10 76/4/11 
f 68/1/36 83/1/15 87/4/10 67/4/33 
f 68/1/36 85/1/37 75/1/13 83/1/15 
f 58/3/33 70/2/36 78/2/15 77/3/10 
f 70/2/36 69/2/37 88/2/13 78/2/15 
f 59/3/34 84/3/11 88/2/13 69/2/37 
f 84/3/11 59/3/34 58/3/33 77/3/10 
s 2
f 67/4/33 86/4/34 61/4/7 63/4/32 
# 86 polygons

